<svg width="16" height="15" viewBox="0 0 16 15" fill="none" xmlns="http://www.w3.org/2000/svg">
<path d="M13.8609 2.22909C13.5204 1.88843 13.1161 1.61819 12.6711 1.43381C12.2261 1.24944 11.7492 1.15454 11.2675 1.15454C10.7859 1.15454 10.3089 1.24944 9.86396 1.43381C9.41898 1.61819 9.0147 1.88843 8.67419 2.22909L7.96753 2.93576L7.26086 2.22909C6.57307 1.5413 5.64022 1.1549 4.66753 1.1549C3.69484 1.1549 2.76199 1.5413 2.07419 2.22909C1.3864 2.91689 1 3.84974 1 4.82242C1 5.79511 1.3864 6.72796 2.07419 7.41576L2.78086 8.12242L7.96753 13.3091L13.1542 8.12242L13.8609 7.41576C14.2015 7.07525 14.4718 6.67097 14.6561 6.22599C14.8405 5.78102 14.9354 5.30408 14.9354 4.82242C14.9354 4.34077 14.8405 3.86383 14.6561 3.41885C14.4718 2.97388 14.2015 2.5696 13.8609 2.22909V2.22909Z" stroke="#E30000" stroke-width="2" stroke-linecap="round" stroke-linejoin="round"/>
</svg>
