<svg width="33" height="33" viewBox="0 0 33 33" fill="none" xmlns="http://www.w3.org/2000/svg">
<path d="M24.4664 0.594727C18.5069 0.594727 16.3173 7.11378 16.3173 7.11378C16.3173 7.11378 14.1576 0.594727 8.15728 0.594727C3.64753 0.594727 -1.49326 4.42055 0.405293 13.1175C2.30385 21.8144 16.3336 32.6484 16.3336 32.6484C16.3336 32.6484 30.3116 21.8144 32.2129 13.1175C34.1115 4.42055 29.3406 0.594727 24.4664 0.594727Z" fill="#F44336"/>
<path d="M7.23768 1.24401C11.9161 1.24401 14.239 6.62754 14.9897 8.80832C15.0958 9.11986 15.501 9.1286 15.6234 8.82579L16.3089 7.11086C15.3433 3.80912 12.6886 0.594727 8.15704 0.594727C6.28024 0.594727 4.29736 1.25857 2.75513 2.65904C4.11785 1.70113 5.71448 1.24401 7.23768 1.24401Z" fill="#CC3333"/>
<path d="M24.4663 0.594727C23.0274 0.594727 21.7164 0.929559 20.6937 1.60505C21.4117 1.30807 22.3012 1.24401 23.1824 1.24401C27.5916 1.24401 31.5383 4.82235 29.7567 13.0942C28.228 20.1955 19.2956 28.8109 16.5674 32.0981C16.3933 32.3078 16.3335 32.6455 16.3335 32.6455C16.3335 32.6455 30.3116 21.8115 32.2128 13.1146C34.1114 4.42055 29.3487 0.594727 24.4663 0.594727Z" fill="#CC3333"/>
<path d="M3.53623 5.20934C4.55623 3.84672 6.37863 2.71993 7.92358 4.0185C8.75862 4.7202 8.39414 6.15852 7.64615 6.76413C6.55815 7.64926 5.61159 8.18208 4.94791 9.56799C4.55079 10.4007 4.31143 11.312 4.18903 12.2408C4.14007 12.6077 3.69127 12.698 3.52263 12.3748C2.37479 10.1969 2.04839 7.19796 3.53623 5.20934Z" fill="#FF8A80"/>
<path d="M19.8886 8.07462C19.4099 8.07462 19.0726 7.57965 19.2467 7.10215C19.5703 6.22285 19.9892 5.37267 20.4924 4.61565C21.2377 3.4976 22.6548 2.84541 23.5524 3.52381C24.4718 4.21677 24.3521 5.60268 23.7075 6.27235C22.323 7.70776 20.5767 8.07462 19.8886 8.07462Z" fill="#FF8A80"/>
</svg>
